<mxfile host="app.diagrams.net" modified="2023-03-28T09:46:55.428Z" agent="Mozilla/5.0 (Windows NT 10.0; Win64; x64) AppleWebKit/537.36 (KHTML, like Gecko) Chrome/111.0.0.0 Safari/537.36" etag="p5d3JeIAf7TlGq8ih8es" version="21.1.1" type="device">
  <diagram name="Page-1" id="bZ3-UlI_hQohyZicIiZp">
    <mxGraphModel dx="5736" dy="3056" grid="1" gridSize="10" guides="1" tooltips="1" connect="1" arrows="1" fold="1" page="1" pageScale="1" pageWidth="827" pageHeight="1169" math="0" shadow="0">
      <root>
        <mxCell id="0" />
        <mxCell id="1" parent="0" />
        <mxCell id="tzjIKLnI3NLbFgxXQfzE-3" style="edgeStyle=orthogonalEdgeStyle;rounded=0;orthogonalLoop=1;jettySize=auto;html=1;entryX=0.25;entryY=0;entryDx=0;entryDy=0;" edge="1" parent="1" source="tzjIKLnI3NLbFgxXQfzE-2" target="tzjIKLnI3NLbFgxXQfzE-4">
          <mxGeometry relative="1" as="geometry">
            <mxPoint x="250" y="530" as="targetPoint" />
          </mxGeometry>
        </mxCell>
        <mxCell id="tzjIKLnI3NLbFgxXQfzE-6" style="edgeStyle=orthogonalEdgeStyle;rounded=0;orthogonalLoop=1;jettySize=auto;html=1;entryX=0.25;entryY=0;entryDx=0;entryDy=0;exitX=0;exitY=1;exitDx=0;exitDy=0;" edge="1" parent="1" source="tzjIKLnI3NLbFgxXQfzE-2" target="tzjIKLnI3NLbFgxXQfzE-5">
          <mxGeometry relative="1" as="geometry" />
        </mxCell>
        <mxCell id="tzjIKLnI3NLbFgxXQfzE-8" style="edgeStyle=orthogonalEdgeStyle;rounded=0;orthogonalLoop=1;jettySize=auto;html=1;entryX=0.25;entryY=0;entryDx=0;entryDy=0;" edge="1" parent="1" source="tzjIKLnI3NLbFgxXQfzE-2" target="tzjIKLnI3NLbFgxXQfzE-7">
          <mxGeometry relative="1" as="geometry" />
        </mxCell>
        <mxCell id="tzjIKLnI3NLbFgxXQfzE-13" style="edgeStyle=orthogonalEdgeStyle;rounded=0;orthogonalLoop=1;jettySize=auto;html=1;entryX=0.595;entryY=0.03;entryDx=0;entryDy=0;entryPerimeter=0;" edge="1" parent="1" source="tzjIKLnI3NLbFgxXQfzE-2" target="tzjIKLnI3NLbFgxXQfzE-11">
          <mxGeometry relative="1" as="geometry" />
        </mxCell>
        <mxCell id="tzjIKLnI3NLbFgxXQfzE-14" style="edgeStyle=orthogonalEdgeStyle;rounded=0;orthogonalLoop=1;jettySize=auto;html=1;" edge="1" parent="1" source="tzjIKLnI3NLbFgxXQfzE-2" target="tzjIKLnI3NLbFgxXQfzE-9">
          <mxGeometry relative="1" as="geometry">
            <Array as="points">
              <mxPoint x="610" y="180" />
            </Array>
          </mxGeometry>
        </mxCell>
        <mxCell id="tzjIKLnI3NLbFgxXQfzE-21" style="edgeStyle=orthogonalEdgeStyle;rounded=0;orthogonalLoop=1;jettySize=auto;html=1;" edge="1" parent="1" source="tzjIKLnI3NLbFgxXQfzE-2" target="tzjIKLnI3NLbFgxXQfzE-20">
          <mxGeometry relative="1" as="geometry">
            <Array as="points">
              <mxPoint x="910" y="160" />
            </Array>
          </mxGeometry>
        </mxCell>
        <mxCell id="tzjIKLnI3NLbFgxXQfzE-24" style="edgeStyle=orthogonalEdgeStyle;rounded=0;orthogonalLoop=1;jettySize=auto;html=1;" edge="1" parent="1" source="tzjIKLnI3NLbFgxXQfzE-2" target="tzjIKLnI3NLbFgxXQfzE-23">
          <mxGeometry relative="1" as="geometry">
            <Array as="points">
              <mxPoint x="1060" y="150" />
            </Array>
          </mxGeometry>
        </mxCell>
        <mxCell id="tzjIKLnI3NLbFgxXQfzE-27" style="edgeStyle=orthogonalEdgeStyle;rounded=0;orthogonalLoop=1;jettySize=auto;html=1;entryX=0.5;entryY=0;entryDx=0;entryDy=0;" edge="1" parent="1" source="tzjIKLnI3NLbFgxXQfzE-2" target="tzjIKLnI3NLbFgxXQfzE-26">
          <mxGeometry relative="1" as="geometry">
            <Array as="points">
              <mxPoint x="1210" y="190" />
            </Array>
          </mxGeometry>
        </mxCell>
        <mxCell id="tzjIKLnI3NLbFgxXQfzE-43" style="edgeStyle=orthogonalEdgeStyle;rounded=0;orthogonalLoop=1;jettySize=auto;html=1;entryX=0.5;entryY=0;entryDx=0;entryDy=0;" edge="1" parent="1" source="tzjIKLnI3NLbFgxXQfzE-2" target="tzjIKLnI3NLbFgxXQfzE-39">
          <mxGeometry relative="1" as="geometry">
            <Array as="points">
              <mxPoint x="430" y="260" />
              <mxPoint x="2050" y="260" />
            </Array>
          </mxGeometry>
        </mxCell>
        <mxCell id="tzjIKLnI3NLbFgxXQfzE-2" value="AssemblerSimulator" style="rounded=1;whiteSpace=wrap;html=1;arcSize=0;fontSize=12;fontFamily=Verdana;" vertex="1" parent="1">
          <mxGeometry x="330" y="140" width="130" height="60" as="geometry" />
        </mxCell>
        <mxCell id="tzjIKLnI3NLbFgxXQfzE-4" value="ResetSourceCode" style="rounded=1;whiteSpace=wrap;html=1;arcSize=0;fontSize=12;fontFamily=Verdana;" vertex="1" parent="1">
          <mxGeometry x="100" y="540" width="120" height="60" as="geometry" />
        </mxCell>
        <mxCell id="tzjIKLnI3NLbFgxXQfzE-5" value="ResetMemory" style="rounded=1;whiteSpace=wrap;html=1;arcSize=0;fontSize=12;fontFamily=Verdana;" vertex="1" parent="1">
          <mxGeometry x="250" y="540" width="120" height="60" as="geometry" />
        </mxCell>
        <mxCell id="tzjIKLnI3NLbFgxXQfzE-7" value="DisplayMenu" style="rounded=1;whiteSpace=wrap;html=1;arcSize=0;fontSize=12;fontFamily=Verdana;" vertex="1" parent="1">
          <mxGeometry x="400" y="540" width="120" height="60" as="geometry" />
        </mxCell>
        <mxCell id="tzjIKLnI3NLbFgxXQfzE-9" value="GetMenuOption" style="rounded=1;whiteSpace=wrap;html=1;arcSize=0;fontSize=12;fontFamily=Verdana;" vertex="1" parent="1">
          <mxGeometry x="550" y="540" width="120" height="60" as="geometry" />
        </mxCell>
        <mxCell id="tzjIKLnI3NLbFgxXQfzE-16" style="edgeStyle=orthogonalEdgeStyle;rounded=0;orthogonalLoop=1;jettySize=auto;html=1;entryX=0.5;entryY=1;entryDx=0;entryDy=0;" edge="1" parent="1" source="tzjIKLnI3NLbFgxXQfzE-11" target="tzjIKLnI3NLbFgxXQfzE-4">
          <mxGeometry relative="1" as="geometry">
            <Array as="points">
              <mxPoint x="718" y="670" />
              <mxPoint x="160" y="670" />
            </Array>
          </mxGeometry>
        </mxCell>
        <mxCell id="tzjIKLnI3NLbFgxXQfzE-22" style="edgeStyle=orthogonalEdgeStyle;rounded=0;orthogonalLoop=1;jettySize=auto;html=1;" edge="1" parent="1" source="tzjIKLnI3NLbFgxXQfzE-11" target="tzjIKLnI3NLbFgxXQfzE-20">
          <mxGeometry relative="1" as="geometry">
            <mxPoint x="780" y="700" as="targetPoint" />
            <Array as="points">
              <mxPoint x="760" y="650" />
              <mxPoint x="860" y="650" />
            </Array>
          </mxGeometry>
        </mxCell>
        <mxCell id="tzjIKLnI3NLbFgxXQfzE-11" value="LoadFile" style="rounded=1;whiteSpace=wrap;html=1;arcSize=0;fontSize=12;fontFamily=Verdana;" vertex="1" parent="1">
          <mxGeometry x="700" y="540" width="120" height="60" as="geometry" />
        </mxCell>
        <mxCell id="tzjIKLnI3NLbFgxXQfzE-20" value="DisplaySourceCode" style="rounded=1;whiteSpace=wrap;html=1;arcSize=0;fontSize=12;fontFamily=Verdana;" vertex="1" parent="1">
          <mxGeometry x="850" y="540" width="120" height="60" as="geometry" />
        </mxCell>
        <mxCell id="tzjIKLnI3NLbFgxXQfzE-25" style="edgeStyle=orthogonalEdgeStyle;rounded=0;orthogonalLoop=1;jettySize=auto;html=1;" edge="1" parent="1" source="tzjIKLnI3NLbFgxXQfzE-23" target="tzjIKLnI3NLbFgxXQfzE-20">
          <mxGeometry relative="1" as="geometry">
            <mxPoint x="930" y="610" as="targetPoint" />
            <Array as="points">
              <mxPoint x="1060" y="650" />
              <mxPoint x="930" y="650" />
            </Array>
          </mxGeometry>
        </mxCell>
        <mxCell id="tzjIKLnI3NLbFgxXQfzE-23" value="EditSourceCode" style="rounded=1;whiteSpace=wrap;html=1;arcSize=0;fontSize=12;fontFamily=Verdana;" vertex="1" parent="1">
          <mxGeometry x="1000" y="540" width="120" height="60" as="geometry" />
        </mxCell>
        <mxCell id="tzjIKLnI3NLbFgxXQfzE-28" style="edgeStyle=orthogonalEdgeStyle;rounded=0;orthogonalLoop=1;jettySize=auto;html=1;entryX=0.448;entryY=1.015;entryDx=0;entryDy=0;entryPerimeter=0;" edge="1" parent="1" source="tzjIKLnI3NLbFgxXQfzE-26" target="tzjIKLnI3NLbFgxXQfzE-5">
          <mxGeometry relative="1" as="geometry">
            <Array as="points">
              <mxPoint x="1170" y="680" />
              <mxPoint x="304" y="680" />
            </Array>
          </mxGeometry>
        </mxCell>
        <mxCell id="tzjIKLnI3NLbFgxXQfzE-29" style="edgeStyle=orthogonalEdgeStyle;rounded=0;orthogonalLoop=1;jettySize=auto;html=1;entryX=0.5;entryY=0;entryDx=0;entryDy=0;" edge="1" parent="1" source="tzjIKLnI3NLbFgxXQfzE-26" target="tzjIKLnI3NLbFgxXQfzE-30">
          <mxGeometry relative="1" as="geometry">
            <mxPoint x="1210" y="770" as="targetPoint" />
          </mxGeometry>
        </mxCell>
        <mxCell id="tzjIKLnI3NLbFgxXQfzE-42" style="edgeStyle=orthogonalEdgeStyle;rounded=0;orthogonalLoop=1;jettySize=auto;html=1;entryX=0.383;entryY=-0.021;entryDx=0;entryDy=0;entryPerimeter=0;" edge="1" parent="1" source="tzjIKLnI3NLbFgxXQfzE-26" target="tzjIKLnI3NLbFgxXQfzE-41">
          <mxGeometry relative="1" as="geometry">
            <Array as="points">
              <mxPoint x="1230" y="665" />
              <mxPoint x="1276" y="665" />
            </Array>
          </mxGeometry>
        </mxCell>
        <mxCell id="tzjIKLnI3NLbFgxXQfzE-26" value="Assemble" style="rounded=1;whiteSpace=wrap;html=1;arcSize=0;fontSize=12;fontFamily=Verdana;" vertex="1" parent="1">
          <mxGeometry x="1150" y="540" width="120" height="60" as="geometry" />
        </mxCell>
        <mxCell id="tzjIKLnI3NLbFgxXQfzE-31" style="edgeStyle=orthogonalEdgeStyle;rounded=0;orthogonalLoop=1;jettySize=auto;html=1;" edge="1" parent="1" source="tzjIKLnI3NLbFgxXQfzE-30">
          <mxGeometry relative="1" as="geometry">
            <mxPoint x="980" y="970" as="targetPoint" />
          </mxGeometry>
        </mxCell>
        <mxCell id="tzjIKLnI3NLbFgxXQfzE-35" style="edgeStyle=orthogonalEdgeStyle;rounded=0;orthogonalLoop=1;jettySize=auto;html=1;entryX=0.5;entryY=0;entryDx=0;entryDy=0;" edge="1" parent="1" source="tzjIKLnI3NLbFgxXQfzE-30" target="tzjIKLnI3NLbFgxXQfzE-36">
          <mxGeometry relative="1" as="geometry">
            <mxPoint x="1130" y="960" as="targetPoint" />
          </mxGeometry>
        </mxCell>
        <mxCell id="tzjIKLnI3NLbFgxXQfzE-37" style="edgeStyle=orthogonalEdgeStyle;rounded=0;orthogonalLoop=1;jettySize=auto;html=1;entryX=0.403;entryY=-0.017;entryDx=0;entryDy=0;entryPerimeter=0;" edge="1" parent="1" source="tzjIKLnI3NLbFgxXQfzE-30" target="tzjIKLnI3NLbFgxXQfzE-38">
          <mxGeometry relative="1" as="geometry">
            <mxPoint x="1260" y="960" as="targetPoint" />
          </mxGeometry>
        </mxCell>
        <mxCell id="tzjIKLnI3NLbFgxXQfzE-30" value="PassOne" style="rounded=1;whiteSpace=wrap;html=1;arcSize=0;fontSize=12;fontFamily=Verdana;" vertex="1" parent="1">
          <mxGeometry x="1040" y="790" width="120" height="60" as="geometry" />
        </mxCell>
        <mxCell id="tzjIKLnI3NLbFgxXQfzE-33" style="edgeStyle=orthogonalEdgeStyle;rounded=0;orthogonalLoop=1;jettySize=auto;html=1;" edge="1" parent="1" source="tzjIKLnI3NLbFgxXQfzE-32">
          <mxGeometry relative="1" as="geometry">
            <mxPoint x="990" y="1080" as="targetPoint" />
          </mxGeometry>
        </mxCell>
        <mxCell id="tzjIKLnI3NLbFgxXQfzE-32" value="ExtractLabel" style="rounded=1;whiteSpace=wrap;html=1;arcSize=0;fontSize=12;fontFamily=Verdana;" vertex="1" parent="1">
          <mxGeometry x="930" y="970" width="120" height="60" as="geometry" />
        </mxCell>
        <mxCell id="tzjIKLnI3NLbFgxXQfzE-34" value="UpdateSymbolTable" style="rounded=1;whiteSpace=wrap;html=1;arcSize=0;fontSize=12;fontFamily=Verdana;" vertex="1" parent="1">
          <mxGeometry x="930" y="1080" width="120" height="60" as="geometry" />
        </mxCell>
        <mxCell id="tzjIKLnI3NLbFgxXQfzE-36" value="ExtractOpcode" style="rounded=1;whiteSpace=wrap;html=1;arcSize=0;fontSize=12;fontFamily=Verdana;" vertex="1" parent="1">
          <mxGeometry x="1071" y="970" width="120" height="60" as="geometry" />
        </mxCell>
        <mxCell id="tzjIKLnI3NLbFgxXQfzE-38" value="ExtractOperand" style="rounded=1;whiteSpace=wrap;html=1;arcSize=0;fontSize=12;fontFamily=Verdana;" vertex="1" parent="1">
          <mxGeometry x="1210" y="970" width="120" height="60" as="geometry" />
        </mxCell>
        <mxCell id="tzjIKLnI3NLbFgxXQfzE-45" style="edgeStyle=orthogonalEdgeStyle;rounded=0;orthogonalLoop=1;jettySize=auto;html=1;entryX=0.5;entryY=0;entryDx=0;entryDy=0;" edge="1" parent="1" source="tzjIKLnI3NLbFgxXQfzE-39" target="tzjIKLnI3NLbFgxXQfzE-44">
          <mxGeometry relative="1" as="geometry" />
        </mxCell>
        <mxCell id="tzjIKLnI3NLbFgxXQfzE-49" style="edgeStyle=orthogonalEdgeStyle;rounded=0;orthogonalLoop=1;jettySize=auto;html=1;entryX=0.5;entryY=0;entryDx=0;entryDy=0;exitX=0;exitY=0.75;exitDx=0;exitDy=0;" edge="1" parent="1" source="tzjIKLnI3NLbFgxXQfzE-39" target="tzjIKLnI3NLbFgxXQfzE-48">
          <mxGeometry relative="1" as="geometry">
            <mxPoint x="1960" y="340" as="sourcePoint" />
            <Array as="points">
              <mxPoint x="1990" y="330" />
              <mxPoint x="1845" y="330" />
              <mxPoint x="1845" y="350" />
              <mxPoint x="1655" y="350" />
            </Array>
          </mxGeometry>
        </mxCell>
        <mxCell id="tzjIKLnI3NLbFgxXQfzE-51" style="edgeStyle=orthogonalEdgeStyle;rounded=0;orthogonalLoop=1;jettySize=auto;html=1;entryX=0.5;entryY=0;entryDx=0;entryDy=0;" edge="1" parent="1" source="tzjIKLnI3NLbFgxXQfzE-39" target="tzjIKLnI3NLbFgxXQfzE-50">
          <mxGeometry relative="1" as="geometry">
            <Array as="points">
              <mxPoint x="2000" y="360" />
              <mxPoint x="1855" y="360" />
            </Array>
          </mxGeometry>
        </mxCell>
        <mxCell id="tzjIKLnI3NLbFgxXQfzE-64" style="edgeStyle=orthogonalEdgeStyle;rounded=0;orthogonalLoop=1;jettySize=auto;html=1;entryX=0.251;entryY=-0.017;entryDx=0;entryDy=0;entryPerimeter=0;" edge="1" parent="1" source="tzjIKLnI3NLbFgxXQfzE-39" target="tzjIKLnI3NLbFgxXQfzE-63">
          <mxGeometry relative="1" as="geometry">
            <mxPoint x="2020" y="399" as="targetPoint" />
            <Array as="points">
              <mxPoint x="2050" y="370" />
              <mxPoint x="2020" y="370" />
            </Array>
          </mxGeometry>
        </mxCell>
        <mxCell id="tzjIKLnI3NLbFgxXQfzE-67" style="edgeStyle=orthogonalEdgeStyle;rounded=0;orthogonalLoop=1;jettySize=auto;html=1;" edge="1" parent="1" source="tzjIKLnI3NLbFgxXQfzE-39" target="tzjIKLnI3NLbFgxXQfzE-66">
          <mxGeometry relative="1" as="geometry">
            <Array as="points">
              <mxPoint x="2090" y="360" />
              <mxPoint x="2210" y="360" />
            </Array>
          </mxGeometry>
        </mxCell>
        <mxCell id="tzjIKLnI3NLbFgxXQfzE-69" style="edgeStyle=orthogonalEdgeStyle;rounded=0;orthogonalLoop=1;jettySize=auto;html=1;" edge="1" parent="1" source="tzjIKLnI3NLbFgxXQfzE-39" target="tzjIKLnI3NLbFgxXQfzE-68">
          <mxGeometry relative="1" as="geometry">
            <Array as="points">
              <mxPoint x="2340" y="330" />
            </Array>
          </mxGeometry>
        </mxCell>
        <mxCell id="tzjIKLnI3NLbFgxXQfzE-73" style="edgeStyle=orthogonalEdgeStyle;rounded=0;orthogonalLoop=1;jettySize=auto;html=1;entryX=0.25;entryY=0;entryDx=0;entryDy=0;" edge="1" parent="1" source="tzjIKLnI3NLbFgxXQfzE-39" target="tzjIKLnI3NLbFgxXQfzE-72">
          <mxGeometry relative="1" as="geometry" />
        </mxCell>
        <mxCell id="tzjIKLnI3NLbFgxXQfzE-39" value="Execute" style="rounded=1;whiteSpace=wrap;html=1;arcSize=0;fontSize=12;fontFamily=Verdana;spacingTop=-1;" vertex="1" parent="1">
          <mxGeometry x="1990" y="280" width="120" height="60" as="geometry" />
        </mxCell>
        <mxCell id="tzjIKLnI3NLbFgxXQfzE-41" value="PassTwo" style="rounded=1;whiteSpace=wrap;html=1;arcSize=0;fontSize=12;fontFamily=Verdana;" vertex="1" parent="1">
          <mxGeometry x="1230" y="730" width="120" height="60" as="geometry" />
        </mxCell>
        <mxCell id="tzjIKLnI3NLbFgxXQfzE-47" style="edgeStyle=orthogonalEdgeStyle;rounded=0;orthogonalLoop=1;jettySize=auto;html=1;entryX=0.5;entryY=0;entryDx=0;entryDy=0;" edge="1" parent="1" source="tzjIKLnI3NLbFgxXQfzE-44" target="tzjIKLnI3NLbFgxXQfzE-46">
          <mxGeometry relative="1" as="geometry" />
        </mxCell>
        <mxCell id="tzjIKLnI3NLbFgxXQfzE-44" value="SetFlags" style="rounded=1;whiteSpace=wrap;html=1;arcSize=0;fontSize=12;fontFamily=Verdana;spacingTop=-1;" vertex="1" parent="1">
          <mxGeometry x="1430" y="330" width="120" height="60" as="geometry" />
        </mxCell>
        <mxCell id="tzjIKLnI3NLbFgxXQfzE-46" value="ConvertToDecimal" style="rounded=1;whiteSpace=wrap;html=1;arcSize=0;fontSize=12;fontFamily=Verdana;spacingTop=-1;" vertex="1" parent="1">
          <mxGeometry x="1430" y="460" width="120" height="60" as="geometry" />
        </mxCell>
        <mxCell id="tzjIKLnI3NLbFgxXQfzE-48" value="DisplayFrameDelimiter" style="rounded=1;whiteSpace=wrap;html=1;arcSize=0;fontSize=12;fontFamily=Verdana;spacingTop=-1;" vertex="1" parent="1">
          <mxGeometry x="1580" y="370" width="150" height="60" as="geometry" />
        </mxCell>
        <mxCell id="tzjIKLnI3NLbFgxXQfzE-58" style="edgeStyle=orthogonalEdgeStyle;rounded=0;orthogonalLoop=1;jettySize=auto;html=1;" edge="1" parent="1" source="tzjIKLnI3NLbFgxXQfzE-50" target="tzjIKLnI3NLbFgxXQfzE-52">
          <mxGeometry relative="1" as="geometry">
            <Array as="points">
              <mxPoint x="1910" y="470" />
              <mxPoint x="1910" y="470" />
            </Array>
          </mxGeometry>
        </mxCell>
        <mxCell id="tzjIKLnI3NLbFgxXQfzE-59" style="edgeStyle=orthogonalEdgeStyle;rounded=0;orthogonalLoop=1;jettySize=auto;html=1;entryX=0.75;entryY=1;entryDx=0;entryDy=0;" edge="1" parent="1" source="tzjIKLnI3NLbFgxXQfzE-50" target="tzjIKLnI3NLbFgxXQfzE-48">
          <mxGeometry relative="1" as="geometry" />
        </mxCell>
        <mxCell id="tzjIKLnI3NLbFgxXQfzE-62" style="edgeStyle=orthogonalEdgeStyle;rounded=0;orthogonalLoop=1;jettySize=auto;html=1;entryX=1;entryY=0.5;entryDx=0;entryDy=0;" edge="1" parent="1" source="tzjIKLnI3NLbFgxXQfzE-50" target="tzjIKLnI3NLbFgxXQfzE-61">
          <mxGeometry relative="1" as="geometry">
            <Array as="points">
              <mxPoint x="1820" y="490" />
              <mxPoint x="1750" y="490" />
              <mxPoint x="1750" y="560" />
            </Array>
          </mxGeometry>
        </mxCell>
        <mxCell id="tzjIKLnI3NLbFgxXQfzE-50" value="DisplayCurrentState" style="rounded=1;whiteSpace=wrap;html=1;arcSize=0;fontSize=12;fontFamily=Verdana;spacingTop=-1;" vertex="1" parent="1">
          <mxGeometry x="1780" y="400" width="150" height="60" as="geometry" />
        </mxCell>
        <mxCell id="tzjIKLnI3NLbFgxXQfzE-55" style="edgeStyle=orthogonalEdgeStyle;rounded=0;orthogonalLoop=1;jettySize=auto;html=1;entryX=0.75;entryY=0;entryDx=0;entryDy=0;" edge="1" parent="1" source="tzjIKLnI3NLbFgxXQfzE-52" target="tzjIKLnI3NLbFgxXQfzE-54">
          <mxGeometry relative="1" as="geometry">
            <Array as="points">
              <mxPoint x="1860" y="605" />
              <mxPoint x="1810" y="605" />
            </Array>
          </mxGeometry>
        </mxCell>
        <mxCell id="tzjIKLnI3NLbFgxXQfzE-57" style="edgeStyle=orthogonalEdgeStyle;rounded=0;orthogonalLoop=1;jettySize=auto;html=1;" edge="1" parent="1" source="tzjIKLnI3NLbFgxXQfzE-52" target="tzjIKLnI3NLbFgxXQfzE-56">
          <mxGeometry relative="1" as="geometry" />
        </mxCell>
        <mxCell id="tzjIKLnI3NLbFgxXQfzE-52" value="DisplayCode" style="rounded=1;whiteSpace=wrap;html=1;arcSize=0;fontSize=12;fontFamily=Verdana;spacingTop=-1;" vertex="1" parent="1">
          <mxGeometry x="1850" y="510" width="120" height="60" as="geometry" />
        </mxCell>
        <mxCell id="tzjIKLnI3NLbFgxXQfzE-54" value="DisplayMemoryLocation" style="rounded=1;whiteSpace=wrap;html=1;arcSize=0;fontSize=12;fontFamily=Verdana;spacingTop=-1;" vertex="1" parent="1">
          <mxGeometry x="1690" y="640" width="160" height="60" as="geometry" />
        </mxCell>
        <mxCell id="tzjIKLnI3NLbFgxXQfzE-56" value="DisplaySourceCodeLine" style="rounded=1;whiteSpace=wrap;html=1;arcSize=0;fontSize=12;fontFamily=Verdana;spacingTop=-1;" vertex="1" parent="1">
          <mxGeometry x="1860" y="640" width="160" height="60" as="geometry" />
        </mxCell>
        <mxCell id="tzjIKLnI3NLbFgxXQfzE-61" value="ConvertToBinary" style="rounded=1;whiteSpace=wrap;html=1;arcSize=0;fontSize=12;fontFamily=Verdana;spacingTop=-1;" vertex="1" parent="1">
          <mxGeometry x="1570" y="530" width="150" height="60" as="geometry" />
        </mxCell>
        <mxCell id="tzjIKLnI3NLbFgxXQfzE-65" style="edgeStyle=orthogonalEdgeStyle;rounded=0;orthogonalLoop=1;jettySize=auto;html=1;" edge="1" parent="1" source="tzjIKLnI3NLbFgxXQfzE-63">
          <mxGeometry relative="1" as="geometry">
            <mxPoint x="1430" y="380" as="targetPoint" />
            <Array as="points">
              <mxPoint x="2050" y="730" />
              <mxPoint x="1420" y="730" />
              <mxPoint x="1420" y="380" />
            </Array>
          </mxGeometry>
        </mxCell>
        <mxCell id="tzjIKLnI3NLbFgxXQfzE-63" value="ExecuteLDA" style="rounded=1;whiteSpace=wrap;html=1;arcSize=0;fontSize=12;fontFamily=Verdana;spacingTop=-1;" vertex="1" parent="1">
          <mxGeometry x="1990" y="400" width="120" height="60" as="geometry" />
        </mxCell>
        <mxCell id="tzjIKLnI3NLbFgxXQfzE-66" value="ExecuteSTA" style="rounded=1;whiteSpace=wrap;html=1;arcSize=0;fontSize=12;fontFamily=Verdana;spacingTop=-1;" vertex="1" parent="1">
          <mxGeometry x="2150" y="400" width="120" height="60" as="geometry" />
        </mxCell>
        <mxCell id="tzjIKLnI3NLbFgxXQfzE-71" style="edgeStyle=orthogonalEdgeStyle;rounded=0;orthogonalLoop=1;jettySize=auto;html=1;" edge="1" parent="1" source="tzjIKLnI3NLbFgxXQfzE-68">
          <mxGeometry relative="1" as="geometry">
            <mxPoint x="1430" y="360" as="targetPoint" />
            <Array as="points">
              <mxPoint x="2370" y="780" />
              <mxPoint x="1390" y="780" />
              <mxPoint x="1390" y="360" />
            </Array>
          </mxGeometry>
        </mxCell>
        <mxCell id="tzjIKLnI3NLbFgxXQfzE-68" value="ExecuteLDAimm" style="rounded=1;whiteSpace=wrap;html=1;arcSize=0;fontSize=12;fontFamily=Verdana;spacingTop=-1;" vertex="1" parent="1">
          <mxGeometry x="2310" y="400" width="120" height="60" as="geometry" />
        </mxCell>
        <mxCell id="tzjIKLnI3NLbFgxXQfzE-74" style="edgeStyle=orthogonalEdgeStyle;rounded=0;orthogonalLoop=1;jettySize=auto;html=1;entryX=0.164;entryY=-0.006;entryDx=0;entryDy=0;entryPerimeter=0;" edge="1" parent="1" source="tzjIKLnI3NLbFgxXQfzE-72" target="tzjIKLnI3NLbFgxXQfzE-44">
          <mxGeometry relative="1" as="geometry">
            <mxPoint x="1510" y="70" as="targetPoint" />
            <Array as="points">
              <mxPoint x="2530" y="220" />
              <mxPoint x="1450" y="220" />
            </Array>
          </mxGeometry>
        </mxCell>
        <mxCell id="tzjIKLnI3NLbFgxXQfzE-72" value="ExecuteADD" style="rounded=1;whiteSpace=wrap;html=1;arcSize=0;fontSize=12;fontFamily=Verdana;spacingTop=-1;" vertex="1" parent="1">
          <mxGeometry x="2470" y="400" width="120" height="60" as="geometry" />
        </mxCell>
      </root>
    </mxGraphModel>
  </diagram>
</mxfile>
